<svg xmlns="http://www.w3.org/2000/svg" xmlns:xlink="http://www.w3.org/1999/xlink" width="120" zoomAndPan="magnify" viewBox="0 0 90 62.249996" height="83" preserveAspectRatio="xMidYMid meet" version="1.0"><defs><clipPath id="67384d199d"><path d="M 3.230469 0.941406 L 86.972656 0.941406 L 86.972656 60.226562 L 3.230469 60.226562 Z M 3.230469 0.941406 " clip-rule="nonzero"/></clipPath></defs><g clip-path="url(#67384d199d)"><path fill="#b71e4c" d="M 12.203125 0.941406 C 7.265625 0.941406 3.261719 4.941406 3.261719 9.882812 C 3.371094 23.445312 3.261719 37.800781 3.261719 51.621094 C 3.261719 56.378906 6.964844 60.230469 11.644531 60.515625 L 78.160156 60.5625 C 82.929688 60.371094 86.730469 56.441406 86.730469 51.621094 L 86.730469 8.347656 C 86.007812 4.132812 82.347656 0.941406 77.929688 0.941406 C 56.03125 0.953125 34.109375 0.941406 12.203125 0.941406 Z M 12.066406 5.644531 L 78.207031 5.644531 L 46.207031 37.644531 C 45.625 38.230469 44.695312 38.230469 44.113281 37.644531 Z M 82.261719 7.929688 L 82.261719 51.292969 C 82.261719 53.878906 81.328125 55.335938 79.464844 55.859375 L 56.921875 33.269531 Z M 8.246094 8.113281 L 33.167969 33.035156 L 10.390625 55.8125 C 8.832031 55.285156 8.289062 54.03125 8.246094 52.316406 Z M 36.335938 36.15625 L 44.113281 43.980469 C 44.695312 44.5625 45.625 44.5625 46.210938 43.980469 L 53.753906 36.433594 L 73.414062 56.089844 L 16.398438 56.089844 Z M 36.335938 36.15625 " fill-opacity="1" fill-rule="nonzero"/></g></svg>