<svg width="256px" height="256px" viewBox="0 0 48.00 48.00" id="Layer_2" data-name="Layer 2" xmlns="http://www.w3.org/2000/svg" fill="#145499" stroke="#145499" stroke-width="2.448"><g id="SVGRepo_bgCarrier" stroke-width="0"></g><g id="SVGRepo_tracerCarrier" stroke-linecap="round" stroke-linejoin="round"></g><g id="SVGRepo_iconCarrier"><defs><style>.cls-1{fill:none;stroke:#21549f;stroke-linecap:round;stroke-linejoin:round;}</style></defs><path class="cls-1" d="M43,25.42,31.06,40.13H18.12a.56.56,0,0,1-.44-.92L30,24,16.94,7.87H31.06L43,22.58A2.26,2.26,0,0,1,43,25.42Z"></path><path class="cls-1" d="M24,16.58,18,24l2.95,3.64a1.12,1.12,0,0,1,0,1.42l-6,7.46a.56.56,0,0,1-.87,0L5,25.42a2.26,2.26,0,0,1,0-2.84L16.94,7.87"></path></g></svg>