<?xml version="1.0" encoding="UTF-8" standalone="no"?><!DOCTYPE svg PUBLIC "-//W3C//DTD SVG 1.1//EN" "http://www.w3.org/Graphics/SVG/1.1/DTD/svg11.dtd"><svg width="13px" height="22px" viewBox="0 0 10 17" version="1.1" xmlns="http://www.w3.org/2000/svg" xmlns:xlink="http://www.w3.org/1999/xlink" xml:space="preserve" xmlns:serif="http://www.serif.com/" style="fill-rule:evenodd;clip-rule:evenodd;stroke-linejoin:round;stroke-miterlimit:1.41421;"><path d="M9.432,7.608l-7.344,-7.344c-0.17,-0.17 -0.397,-0.264 -0.638,-0.264c-0.242,0 -0.469,0.094 -0.639,0.264l-0.541,0.54c-0.351,0.353 -0.351,0.925 0,1.277l6.167,6.167l-6.173,6.174c-0.17,0.17 -0.264,0.397 -0.264,0.638c0,0.242 0.094,0.469 0.264,0.639l0.54,0.54c0.17,0.17 0.397,0.264 0.639,0.264c0.242,0 0.468,-0.094 0.638,-0.264l7.351,-7.35c0.17,-0.171 0.264,-0.398 0.263,-0.641c0.001,-0.243 -0.093,-0.47 -0.263,-0.64Z" style="fill:#b41d4a;fill-rule:nonzero;"/></svg>